<?xml version="1.0" encoding="utf-8"?>
<svg width="100px" height="100px" viewBox="0 0 100 100" version="1.1" xmlns:xlink="http://www.w3.org/1999/xlink" xmlns="http://www.w3.org/2000/svg">
  <defs>
    <path d="M100 0L100 0L100 100L0 100L0 0L100 0Z" id="path_1" />
    <clipPath id="clip_1">
      <use xlink:href="#path_1" clip-rule="evenodd" fill-rule="evenodd" />
    </clipPath>
  </defs>
  <g id="Icon">
    <path d="M100 0L100 0L100 100L0 100L0 0L100 0Z" id="Icon" fill="none" stroke="none" />
    <path d="M97.2323 33.5139C100.135 40.315 99.999 53.5545 99.999 53.5545C99.999 53.5545 95.1599 47.0144 90.3257 42.5616C85.4904 38.1086 80.8668 34.6705 80.8668 34.6705C80.8668 34.6705 71.0686 27.2608 59.8928 22.4556C48.7193 17.6501 41.7605 16.0227 35.967 15.5759C25.0277 14.7319 14.1953 20.6899 11.7068 31.3199C10.1847 37.8225 11.3963 51.0526 20.2182 56.3171C25.1704 59.2723 51.9737 73.9855 67.8886 78.8109C82.2571 83.1672 84.1229 75.0746 84.4825 73.5147L84.4849 73.5044C86.2557 65.8239 82.1386 61.942 79.5904 60.5614C62.4504 51.2731 32.6309 42.7719 17.2396 34.0365C16.173 33.4312 14.5897 29.216 17.2396 27.0345C17.6303 26.7129 17.9958 26.3859 18.3531 26.0663C20.6577 24.0047 22.6163 22.2525 28.7308 24.2739C40.4958 28.1631 62.4403 38.2418 81.9306 46.5563C101.334 54.8337 102.684 88.8153 66.8249 99.3924C60.9205 101.134 -0.378164 102.14 0.00178019 57.5905C0.0150045 56.0308 0.415802 55.3637 1.21384 54.1186C2.01213 52.8727 3.19392 52.6093 3.19392 52.6093C3.19392 52.6093 -11.0085 16.1832 34.2649 6.02697C34.8306 5.79999 35.5592 5.45076 36.4323 5.03228C40.6353 3.01776 48.1867 -0.601643 57.0341 0.0854492C83.6306 2.15124 95.7621 30.0705 97.2323 33.5139ZM53.1994 90.6007C46.6814 88.4822 25.0477 76.8543 18.3003 68.5339C23.6518 72.7642 44.2555 79.1711 53.1994 82.5377C61.9262 85.8226 70.4215 88.0585 80.2253 89.9641C76.6801 91.6286 66.6114 94.9593 53.1994 90.6007Z" id="Logo" fill="#FFFFFF" fill-rule="evenodd" stroke="none" clip-path="url(#clip_1)" />
  </g>
</svg>